<svg width="12" height="13" viewBox="0 0 12 13" fill="none" xmlns="http://www.w3.org/2000/svg">
<path fill-rule="evenodd" clip-rule="evenodd" d="M5.035 3.47139L1.858 3.06139C1.591 3.02439 1.334 3.21939 1.299 3.49439C1.112 4.94439 1.108 6.33639 1.289 7.41439C1.451 8.38339 1.745 9.02039 2.164 9.32039L1.904 11.3364L0.845003 12.1544C0.733003 12.2404 0.781003 12.4194 0.922003 12.4374L3.568 12.7784C3.708 12.7964 3.8 12.6354 3.714 12.5234L2.896 11.4644L3.158 9.43239C3.638 9.24639 4.083 8.71939 4.484 7.82539C4.932 6.82839 5.281 5.48039 5.468 4.03039C5.503 3.75739 5.31 3.50639 5.035 3.47139ZM2.233 4.11839L4.405 4.39839C4.268 5.27039 4.082 5.99139 3.884 6.58839H2.196C2.139 5.92139 2.135 5.09839 2.233 4.11839Z" fill="white"/>
<path fill-rule="evenodd" clip-rule="evenodd" d="M11.1374 9.61024L9.97739 8.94324L9.44739 6.97824C9.82239 6.62424 10.0284 5.95524 10.0584 4.97424C10.0904 3.88224 9.89939 2.50224 9.51839 1.09124C9.48339 0.963244 9.39939 0.853244 9.28439 0.787244C9.16939 0.722244 9.03039 0.703244 8.90539 0.738244L5.81339 1.57324C5.54639 1.64424 5.38839 1.91924 5.46039 2.18524C6.09739 4.54724 7.26539 6.93524 8.48239 7.23624L9.01239 9.20224L8.34439 10.3642C8.27439 10.4862 8.38739 10.6332 8.52339 10.5962L11.1004 9.90124C11.2364 9.86424 11.2604 9.68124 11.1374 9.61024ZM8.67639 1.83624C8.87539 2.66524 8.97739 3.38024 9.02539 3.99524H7.13639C6.93939 3.53324 6.74439 3.01024 6.56339 2.40624L8.67639 1.83624Z" fill="white"/>
</svg>
