<svg width="14" height="16" viewBox="0 0 14 16" fill="none" xmlns="http://www.w3.org/2000/svg">
<path d="M5.71667 16C7.22433 16 8.44653 14.5673 8.44653 12.8V12H7.0816V12.8C7.0816 13.6837 6.4705 14.4 5.71667 14.4H2.78587C2.03202 14.4 1.42094 13.6837 1.42094 12.8L1.42094 3.2C1.42094 2.31632 2.03202 1.6 2.78587 1.6H5.71667C6.4705 1.6 7.0816 2.31632 7.0816 3.2V4H8.44653V3.2C8.44653 1.43272 7.22433 0 5.71667 0H2.78587C1.27824 0 0.0560131 1.43272 0.0560131 3.2L0.0560131 12.8C0.0560131 14.5673 1.27824 16 2.78587 16H5.71667Z" fill="#F9F9F9"/>
<path d="M5.03451 7.19978C4.6576 7.19978 4.35205 7.55794 4.35205 7.99978C4.35205 8.44162 4.6576 8.79978 5.03451 8.79978L11.5742 8.79978L9.84377 10.8282C9.57727 11.1407 9.57727 11.6471 9.84377 11.9596C10.1103 12.272 10.5424 12.272 10.8089 11.9596L13.6723 8.60306C13.8159 8.45634 13.9066 8.2405 13.9066 7.99978C13.9066 7.75906 13.8159 7.54322 13.6723 7.3965L10.8089 4.03998C10.5424 3.72756 10.1103 3.72756 9.84377 4.03998C9.57727 4.3524 9.57727 4.85893 9.84377 5.17135L11.5742 7.19978L5.03451 7.19978Z" fill="#F9F9F9"/>
</svg>
