<svg width="12" height="12" viewBox="0 0 12 12" fill="none" xmlns="http://www.w3.org/2000/svg">
<path fill-rule="evenodd" clip-rule="evenodd" d="M9.10246 11.0015H8.4777C8.28977 11.0015 8.13761 10.8493 8.13761 10.6614C8.13761 10.4734 8.28977 10.3213 8.4777 10.3213H9.10246C9.29039 10.3213 9.44255 10.4734 9.44255 10.6614C9.44255 10.8493 9.29039 11.0015 9.10246 11.0015ZM7.22815 11.0015H6.6034C6.41546 11.0015 6.26331 10.8493 6.26331 10.6614C6.26331 10.4734 6.41546 10.3213 6.6034 10.3213H7.22815C7.41608 10.3213 7.56824 10.4734 7.56824 10.6614C7.56824 10.8493 7.41608 11.0015 7.22815 11.0015ZM10.3217 10.7915C10.1933 10.7915 10.0703 10.7185 10.0129 10.594C9.9343 10.4237 10.0084 10.2212 10.1792 10.1426C10.3399 10.068 10.4905 9.97181 10.6271 9.85643C10.7707 9.735 10.9853 9.75264 11.1067 9.89623C11.2282 10.0398 11.2105 10.2545 11.0669 10.3759C10.884 10.5311 10.6815 10.6606 10.4648 10.7603C10.418 10.7815 10.3696 10.7915 10.3217 10.7915ZM11.542 9.43679C11.5057 9.43679 11.469 9.43124 11.4327 9.41865C11.2548 9.35819 11.1596 9.16522 11.2201 8.98736C11.277 8.81959 11.3108 8.64475 11.3203 8.4674C11.3304 8.27998 11.4906 8.13538 11.6781 8.14596C11.8655 8.15603 12.0096 8.31625 11.9995 8.50368C11.9869 8.74351 11.9411 8.97981 11.8645 9.20653C11.8161 9.34761 11.6836 9.43679 11.542 9.43679ZM11.3909 7.62094C11.2694 7.62094 11.1525 7.55595 11.0911 7.44158C11.0069 7.28539 10.9021 7.14078 10.7787 7.0118C10.6487 6.87577 10.6537 6.66063 10.7898 6.53064C10.9258 6.40115 11.141 6.40569 11.2709 6.54172C11.4367 6.71504 11.5778 6.90952 11.6906 7.11962C11.7798 7.28488 11.7173 7.49146 11.5521 7.58013C11.5002 7.60784 11.4453 7.62094 11.3909 7.62094ZM9.96501 6.48365C9.93528 6.48365 9.90505 6.47961 9.87533 6.47155C9.70906 6.42621 9.53725 6.40303 9.36444 6.40303C9.36393 6.40303 9.36393 6.40303 9.36343 6.40303H9.3473C9.15937 6.40303 9.00721 6.25087 9.00721 6.06294C9.00721 5.87501 9.15937 5.72285 9.3473 5.72285H9.36343C9.36393 5.72285 9.36444 5.72285 9.36444 5.72285C9.59771 5.72285 9.82998 5.75359 10.0542 5.81505C10.2356 5.86443 10.3424 6.05135 10.293 6.23273C10.2522 6.38439 10.1146 6.48365 9.96501 6.48365ZM8.09779 6.40362H7.47304C7.28511 6.40362 7.13295 6.25146 7.13295 6.06353C7.13295 5.8756 7.28511 5.72344 7.47304 5.72344H8.09779C8.28573 5.72344 8.43788 5.8756 8.43788 6.06353C8.43788 6.25095 8.28573 6.40362 8.09779 6.40362ZM6.22301 6.40362H5.59826C5.41033 6.40362 5.25817 6.25146 5.25817 6.06353C5.25817 5.8756 5.41033 5.72344 5.59826 5.72344H6.22301C6.41095 5.72344 6.5631 5.8756 6.5631 6.06353C6.56361 6.25095 6.41095 6.40362 6.22301 6.40362ZM4.34875 6.40362H3.72399C3.53606 6.40362 3.3839 6.25146 3.3839 6.06353C3.3839 5.8756 3.53606 5.72344 3.72399 5.72344H4.34875C4.53668 5.72344 4.68884 5.8756 4.68884 6.06353C4.68884 6.25095 4.53668 6.40362 4.34875 6.40362ZM2.47446 6.39915C2.4669 6.39915 2.45985 6.39864 2.45229 6.39864C2.21297 6.38302 1.97667 6.33516 1.75095 6.25555C1.5736 6.19308 1.48039 5.9991 1.54286 5.82175C1.60534 5.6444 1.79932 5.55119 1.97667 5.61366C2.14394 5.67261 2.31827 5.70788 2.49612 5.71947C2.68355 5.73156 2.82563 5.89329 2.81404 6.08072C2.80246 6.26059 2.65282 6.39915 2.47446 6.39915ZM0.852107 5.56785C0.754362 5.56785 0.657122 5.52603 0.590111 5.44492C0.436945 5.26051 0.309978 5.05646 0.212234 4.8388C0.135147 4.66749 0.21173 4.46596 0.383034 4.38887C0.554339 4.31229 0.755874 4.38837 0.832961 4.55967C0.905513 4.72141 1.00023 4.87306 1.1141 5.01061C1.23401 5.15521 1.21386 5.36984 1.06926 5.48976C1.00578 5.54216 0.92869 5.56785 0.852107 5.56785ZM0.340714 3.81945C0.326607 3.81945 0.312499 3.81845 0.297888 3.81693C0.111468 3.79376 -0.0205369 3.62346 0.00263964 3.43704C0.032366 3.19923 0.0948418 2.96646 0.188052 2.74527C0.261108 2.57246 0.460627 2.49084 0.633444 2.56389C0.806763 2.63695 0.887881 2.83647 0.814825 3.00928C0.745799 3.17303 0.69995 3.34534 0.677781 3.52118C0.656116 3.69349 0.5095 3.81945 0.340714 3.81945ZM1.26729 2.24965C1.16249 2.24965 1.0592 2.20129 0.992695 2.1106C0.88185 1.95894 0.9146 1.74632 1.06625 1.63497C1.25973 1.4934 1.47084 1.37852 1.69404 1.29388C1.86937 1.22737 2.06587 1.31604 2.13237 1.49188C2.19888 1.66772 2.11021 1.86372 1.93487 1.93073C1.76911 1.9932 1.61191 2.07835 1.46832 2.18365C1.40786 2.22849 1.33732 2.24965 1.26729 2.24965ZM7.42012 1.80518H6.79536C6.60743 1.80518 6.45527 1.65302 6.45527 1.46509C6.45527 1.27716 6.60743 1.125 6.79536 1.125H7.42012C7.60805 1.125 7.76021 1.27716 7.76021 1.46509C7.76021 1.65302 7.60805 1.80518 7.42012 1.80518ZM5.54534 1.80518H4.92058C4.73265 1.80518 4.58049 1.65302 4.58049 1.46509C4.58049 1.27716 4.73265 1.125 4.92058 1.125H5.54534C5.73327 1.125 5.88543 1.27716 5.88543 1.46509C5.88543 1.65302 5.73327 1.80518 5.54534 1.80518ZM3.67107 1.80518H3.04632C2.85838 1.80518 2.70623 1.65302 2.70623 1.46509C2.70623 1.27716 2.85838 1.125 3.04632 1.125H3.67107C3.859 1.125 4.01116 1.27716 4.01116 1.46509C4.01116 1.65302 3.859 1.80518 3.67107 1.80518Z" fill="white"/>
<circle cx="4.19444" cy="10.6603" r="1.18956" fill="white"/>
<path fill-rule="evenodd" clip-rule="evenodd" d="M9.86306 0C9.08111 0 8.44678 0.633827 8.44678 1.41629C8.44678 2.19824 9.86306 3.66995 9.86306 3.66995C9.86306 3.66995 11.2793 2.19824 11.2793 1.41629C11.2793 0.634331 10.645 0 9.86306 0ZM9.86307 2.09701C9.48721 2.09701 9.18239 1.79219 9.18239 1.41633C9.18239 1.04047 9.48721 0.735645 9.86307 0.735645C10.2389 0.735645 10.5438 1.04047 10.5438 1.41633C10.5438 1.79219 10.2389 2.09701 9.86307 2.09701Z" fill="white"/>
</svg>
