<?xml version="1.0" encoding="utf-8"?>
<!-- Generator: Adobe Illustrator 24.3.0, SVG Export Plug-In . SVG Version: 6.00 Build 0)  -->
<svg version="1.1" xmlns="http://www.w3.org/2000/svg" xmlns:xlink="http://www.w3.org/1999/xlink" x="0px" y="0px"
	 viewBox="0 0 1240 1000" style="enable-background:new 0 0 1240 1000;" xml:space="preserve">
<style type="text/css">
	.st0{fill:#FF8615;}
</style>
<g id="Layer_1">
	<g>
		<g>
			<path class="st0" d="M654.901,522.11c1.486,0,2.932,0,4.378,0c44.469,0,88.938,0.04,133.406-0.022
				c14.221-0.02,24.901,5.901,31.043,18.766c9.87,20.674-5.23,44.934-28.127,45.622c-0.114,0.003-0.227,0.008-0.341,0.008
				c-116.801,0.002-233.603,0.032-350.404-0.036c-13.565-0.008-25.334-8.795-29.8-21.574c-7.082-20.261,7.215-41.644,28.666-42.605
				c7.946-0.356,15.918-0.152,23.879-0.155c37.417-0.011,74.835-0.005,112.252-0.005c1.45,0,2.9,0,4.52,0
				c0-51.081,0-101.766,0-152.747c-11.193,0-22.367,0-33.964,0c0,41.53,0,83.069,0,124.804c-23.005,0-45.59,0-68.701,0
				c0-1.202,0-2.407,0-3.611c0-102.358-0.008-204.715,0.008-307.073c0.003-18.372,11-32.657,27.411-35.773
				c21.541-4.09,40.786,11.474,41.142,33.488c0.215,13.303,0.048,26.612,0.049,39.919c0.002,25.817,0.001,51.634,0.001,77.451
				c0,1.336,0,2.671,0,4.173c11.497,0,22.604,0,34.228,0c0-1.451,0-2.881,0-4.311c0-82.341-0.006-164.682,0.006-247.023
				c0.002-15.809,8.08-28.467,21.639-34.061c21.399-8.829,45.337,5.136,48.029,28.056c0.291,2.477,0.401,4.989,0.401,7.484
				c0.02,81.772,0.017,163.545,0.017,245.317c0,1.448,0,2.896,0,4.524c10.229,0,20.054,0,30.273,0c0-1.511,0-2.843,0-4.175
				c0-38.668-0.036-77.337,0.017-116.005c0.024-17.652,11.397-31.877,27.66-34.866c21.458-3.944,40.024,11.215,40.934,33.429
				c0.047,1.136,0.026,2.274,0.026,3.411c0.001,101.675,0.001,203.35,0.001,305.026c0,1.458,0,2.916,0,4.592
				c-22.892,0-45.471,0-68.472,0c0-41.478,0-83.027,0-124.822c-10.249,0-20.08,0-30.176,0
				C654.901,420.137,654.901,470.9,654.901,522.11z"/>
		</g>
		<g>
			<g>
				<path class="st0" d="M618.23,805.893c6.172,12.427,12.38,24.922,18.584,37.42c2.614,5.266,0.767,8.358-5.098,8.412
					c-6.025,0.055-12.052-0.019-18.077,0.019c-3.698,0.024-6.132-1.557-7.714-4.994c-4.747-10.311-9.726-20.515-14.49-30.819
					c-0.901-1.949-2.034-2.646-4.146-2.588c-4.984,0.139-9.974,0.044-15.491,0.044c0,1.511,0,2.71,0,3.909
					c0,9.437,0.016,18.874-0.008,28.31c-0.012,4.682-1.416,6.094-6.087,6.121c-5.912,0.035-11.825,0.042-17.736-0.003
					c-4.378-0.034-5.816-1.379-5.819-5.657c-0.027-36.61-0.027-73.22,0.003-109.83c0.003-4.002,1.366-5.411,5.304-5.414
					c17.963-0.012,35.936-0.316,53.886,0.2c18.318,0.527,32.769,14.301,35.074,32.565c1.634,12.949-0.527,24.966-9.65,34.914
					C624.337,801.15,621.315,803.252,618.23,805.893z M572.068,760.793c0,8.315,0,16.185,0,24.219c8.79,0,17.324,0.264,25.821-0.18
					c2.196-0.115,5.01-1.963,6.266-3.859c3.207-4.84,3.146-10.325,0.931-15.657c-1.134-2.731-3.376-4.272-6.381-4.377
					c-3.52-0.123-7.045-0.126-10.568-0.14C582.826,760.778,577.513,760.793,572.068,760.793z"/>
				<path class="st0" d="M315.075,807.79c-5.894,0-11.332,0.031-16.77-0.01c-4.592-0.035-5.866-1.328-5.893-5.895
					c-0.026-4.435-0.02-8.871-0.002-13.306c0.02-4.725,1.328-6.106,6.058-6.121c12.851-0.041,25.702-0.016,38.554-0.015
					c1.251,0,2.507-0.063,3.752,0.031c3.466,0.261,4.941,1.735,4.947,5.185c0.033,19.561,0.032,39.122,0.003,58.683
					c-0.005,3.606-1.588,5.173-5.139,5.387c-0.113,0.007-0.228-0.002-0.341,0.006c-6.196,0.457-12.161,0.475-13.573-7.49
					c-0.752,0.117-1.124,0.078-1.386,0.23c-21.905,12.633-43.816,11.339-64.365-2.158c-20.346-13.365-28.942-33.525-26.57-57.606
					c2.7-27.402,20.859-47.923,47.677-53.772c21.342-4.654,40.817,0.211,57.398,14.95c3.006,2.672,3.012,5.774,0.071,8.466
					c-3.523,3.225-7.119,6.369-10.71,9.518c-3.489,3.06-5.535,3.166-9.376,0.384c-9.155-6.63-19.54-8.037-30.229-6.124
					c-13.366,2.392-23.16,13.919-25.211,28.415c-2.402,16.977,8.017,34.422,23.67,38.899c8.118,2.322,16.39,1.989,24.495-0.73
					c2.084-0.699,3.137-1.699,3.002-4.13C314.911,816.515,315.075,812.42,315.075,807.79z"/>
				<path class="st0" d="M718.896,778.699c12.585,0,24.805,0,37.397,0c0-1.376,0-2.602,0-3.829c0-12.508-0.018-25.015,0.009-37.523
					c0.012-5.495,1.092-6.531,6.647-6.547c5.799-0.017,11.598-0.046,17.397,0.015c4.298,0.045,5.667,1.457,5.669,5.79
					c0.013,36.386,0.013,72.771,0.001,109.157c-0.001,4.447-1.465,5.93-5.908,5.964c-5.912,0.045-11.825,0.04-17.738,0.003
					c-4.703-0.03-6.04-1.347-6.06-6.152c-0.047-11.37-0.016-22.741-0.017-34.111c0-1.348,0-2.695,0-4.285
					c-12.512,0-24.708,0-37.225,0c-0.058,1.242-0.163,2.449-0.165,3.657c-0.013,11.484,0.007,22.968-0.015,34.453
					c-0.01,5.041-1.434,6.425-6.553,6.443c-5.799,0.021-11.598,0.038-17.397-0.008c-4.439-0.035-5.881-1.493-5.883-6
					c-0.016-36.272-0.015-72.544-0.002-108.816c0.002-4.791,1.281-6.071,6.059-6.102c5.912-0.038,11.826-0.044,17.738,0.002
					c4.638,0.036,6.026,1.462,6.036,6.208c0.026,12.621,0.009,25.242,0.01,37.864C718.896,776.1,718.896,777.32,718.896,778.699z"/>
				<path class="st0" d="M431.895,759.564c0,6.19,0,12.035,0,18.226c1.866,0,3.543,0,5.22,0c11.256,0.001,22.512-0.024,33.767,0.014
					c4.721,0.016,6.022,1.378,6.047,6.139c0.025,4.889,0.009,9.778,0.005,14.667c-0.004,6.357-0.969,7.349-7.223,7.354
					c-11.256,0.009-22.512,0.003-33.767,0.003c-1.245,0-2.49,0-3.989,0c0,5.803,0,11.432,0,17.62c1.238,0,2.543,0,3.849,0
					c15.008,0,30.015-0.005,45.023,0.003c6.304,0.003,7.239,0.965,7.246,7.394c0.005,4.889,0.034,9.778-0.01,14.667
					c-0.041,4.567-1.392,6.059-5.829,6.066c-24.899,0.042-49.798,0.037-74.697,0.002c-4.006-0.006-5.677-1.637-5.681-5.58
					c-0.032-36.61-0.032-73.219,0-109.829c0.003-3.862,1.564-5.476,5.363-5.483c25.126-0.045,50.253-0.043,75.38-0.004
					c3.875,0.006,5.386,1.527,5.447,5.374c0.089,5.683,0.053,11.369,0.02,17.054c-0.029,4.945-1.333,6.29-6.285,6.301
					c-15.235,0.035-30.47,0.013-45.705,0.013C434.739,759.564,433.402,759.564,431.895,759.564z"/>
				<path class="st0" d="M848.305,851.735c-3.412-0.002-6.827,0.078-10.236-0.022c-4.579-0.133-6.35-2.982-4.393-7.033
					c17.634-36.507,35.289-73.002,52.923-109.509c1.462-3.027,3.71-4.911,7.143-4.881c3.423,0.03,5.606,1.929,7.077,4.975
					c17.584,36.404,35.212,72.786,52.817,109.179c2.077,4.293,0.349,7.195-4.432,7.265c-6.595,0.096-13.196-0.093-19.789,0.073
					c-3.709,0.093-6.015-1.555-7.496-4.751c-2.292-4.946-4.684-9.848-6.844-14.85c-0.807-1.869-1.892-2.448-3.861-2.435
					c-11.715,0.08-23.43,0.09-35.144-0.008c-2.052-0.017-3.026,0.751-3.808,2.545c-2.087,4.787-4.408,9.472-6.535,14.242
					c-1.606,3.602-4.058,5.554-8.212,5.254C854.459,851.56,851.375,851.737,848.305,851.735z M902.488,804.801
					c-2.955-6.117-5.732-11.866-8.803-18.224c-3.227,6.394-6.134,12.155-9.197,18.224
					C890.757,804.801,896.371,804.801,902.488,804.801z"/>
				<path class="st0" d="M73.968,759.563c0,1.835,0,3.178,0,4.522c0,26.831,0.002,53.663-0.002,80.494
					c-0.001,5.962-1.201,7.15-7.206,7.157c-5.457,0.006-10.915,0.022-16.372-0.006c-4.892-0.024-6.287-1.402-6.29-6.308
					c-0.015-27.173-0.008-54.345-0.008-81.518c0-1.331,0-2.662,0-4.341c-7.618,0-14.864,0.005-22.11-0.002
					c-6.38-0.006-7.37-0.977-7.373-7.205c-0.003-5.344-0.031-10.687,0.011-16.031c0.031-3.946,1.41-5.494,5.254-5.5
					c26.149-0.044,52.299-0.044,78.448,0.007c3.644,0.007,5.088,1.61,5.121,5.3c0.051,5.684,0.024,11.369,0.012,17.054
					c-0.01,5.088-1.274,6.347-6.516,6.368C89.45,759.586,81.96,759.563,73.968,759.563z"/>
				<path class="st0" d="M1168.906,823.843c16.859,0,33.111-0.002,49.364,0.001c6.004,0.001,7.098,1.107,7.104,7.166
					c0.005,5.002,0.044,10.005-0.015,15.007c-0.048,4.075-1.496,5.679-5.538,5.688c-25.125,0.055-50.25,0.05-75.375,0.004
					c-3.692-0.007-5.043-1.485-5.288-5.219c-0.052-0.793-0.024-1.591-0.024-2.387c-0.001-35.243-0.003-70.487,0.001-105.73
					c0.001-6.791,0.803-7.573,7.697-7.576c5.343-0.003,10.687-0.03,16.03,0.01c4.761,0.036,6.037,1.336,6.039,6.117
					c0.009,27.513,0.005,55.025,0.005,82.538C1168.906,820.794,1168.906,822.127,1168.906,823.843z"/>
				<path class="st0" d="M1031.058,823.843c1.606,0,2.825,0,4.043,0c15.347,0,30.695-0.006,46.042,0.004
					c5.04,0.003,6.376,1.371,6.391,6.506c0.015,5.229,0.044,10.459-0.011,15.688c-0.042,4.049-1.508,5.656-5.558,5.664
					c-25.124,0.053-50.249,0.05-75.373,0.001c-3.793-0.008-5.193-1.537-5.227-5.58c-0.077-9.094-0.03-18.189-0.031-27.284
					c-0.001-26.83-0.003-53.659,0.001-80.489c0.001-6.895,0.68-7.555,7.688-7.558c5.343-0.002,10.687-0.031,16.03,0.011
					c4.762,0.038,5.999,1.313,6,6.147c0.01,27.512,0.005,55.023,0.005,82.535C1031.058,820.819,1031.058,822.149,1031.058,823.843z"
					/>
				<path class="st0" d="M181.941,791.156c0,18.087,0.006,36.173-0.004,54.26c-0.003,4.883-1.395,6.291-6.267,6.314
					c-5.801,0.028-11.603,0.035-17.404-0.002c-4.701-0.03-6.103-1.375-6.107-6.154c-0.029-36.287-0.031-72.574,0.004-108.862
					c0.004-4.585,1.374-5.869,5.945-5.904c5.915-0.045,11.83-0.04,17.745-0.002c4.774,0.031,6.079,1.345,6.083,6.089
					C181.949,754.982,181.941,773.069,181.941,791.156z"/>
				<g>
					<path class="st0" d="M48.788,975.052H31.765l-4.256,8.913c-0.108,0.269-0.269,0.496-0.481,0.683
						c-0.215,0.188-0.482,0.281-0.803,0.281h-7.789c-0.643,0-0.964-0.321-0.964-0.964l21.601-44.326
						c0.374-0.374,0.775-0.562,1.205-0.562c0.428,0,0.83,0.188,1.205,0.562l21.601,44.326c0,0.643-0.321,0.964-0.963,0.964h-7.79
						c-0.321,0-0.59-0.093-0.803-0.281c-0.215-0.187-0.375-0.414-0.482-0.683L48.788,975.052z M44.853,966.941l-4.577-9.556
						l-4.577,9.556H44.853z"/>
					<path class="st0" d="M139.85,976.898c-2.142,2.569-4.765,4.617-7.87,6.144c-3.105,1.525-6.452,2.288-10.038,2.288
						c-3.212,0-6.237-0.614-9.074-1.847c-2.838-1.231-5.3-2.891-7.388-4.979c-2.087-2.088-3.748-4.55-4.979-7.388
						c-1.232-2.837-1.847-5.862-1.847-9.074s0.615-6.236,1.847-9.074c1.231-2.837,2.891-5.3,4.979-7.388
						c2.088-2.088,4.55-3.747,7.388-4.979c2.837-1.231,5.862-1.848,9.074-1.848c3.212,0,6.236,0.603,9.074,1.808
						c2.837,1.204,5.3,2.851,7.388,4.938c0.213,0.321,0.321,0.59,0.321,0.803c0,0.269-0.108,0.51-0.321,0.723l-4.577,4.417
						c-0.161,0.16-0.349,0.24-0.562,0.24c-0.321,0-0.616-0.133-0.883-0.401c-1.446-1.337-3.039-2.354-4.778-3.052
						c-1.741-0.694-3.654-1.044-5.742-1.044s-4.002,0.402-5.742,1.205c-1.74,0.803-3.226,1.887-4.457,3.252
						c-1.232,1.365-2.196,2.959-2.891,4.778c-0.696,1.82-1.044,3.774-1.044,5.861c0,2.088,0.348,4.043,1.044,5.862
						c0.695,1.82,1.659,3.413,2.891,4.778c1.231,1.365,2.716,2.437,4.457,3.212c1.739,0.776,3.654,1.164,5.742,1.164
						c2.569,0,4.898-0.548,6.986-1.646c2.087-1.097,3.854-2.53,5.3-4.297c0.267-0.267,0.562-0.401,0.883-0.401
						c0.213,0,0.401,0.08,0.562,0.241l4.256,4.176c0.213,0.214,0.321,0.455,0.321,0.723
						C140.171,976.31,140.063,976.577,139.85,976.898z"/>
					<path class="st0" d="M218.945,976.898c-2.142,2.569-4.765,4.617-7.87,6.144c-3.105,1.525-6.452,2.288-10.038,2.288
						c-3.212,0-6.237-0.614-9.074-1.847c-2.838-1.231-5.3-2.891-7.388-4.979c-2.087-2.088-3.748-4.55-4.979-7.388
						c-1.232-2.837-1.847-5.862-1.847-9.074s0.615-6.236,1.847-9.074c1.231-2.837,2.891-5.3,4.979-7.388
						c2.088-2.088,4.55-3.747,7.388-4.979c2.837-1.231,5.862-1.848,9.074-1.848c3.212,0,6.236,0.603,9.074,1.808
						c2.837,1.204,5.3,2.851,7.388,4.938c0.213,0.321,0.321,0.59,0.321,0.803c0,0.269-0.108,0.51-0.321,0.723l-4.577,4.417
						c-0.161,0.16-0.349,0.24-0.562,0.24c-0.321,0-0.616-0.133-0.883-0.401c-1.446-1.337-3.039-2.354-4.778-3.052
						c-1.741-0.694-3.654-1.044-5.742-1.044s-4.002,0.402-5.742,1.205c-1.74,0.803-3.226,1.887-4.457,3.252
						c-1.232,1.365-2.196,2.959-2.891,4.778c-0.696,1.82-1.044,3.774-1.044,5.861c0,2.088,0.348,4.043,1.044,5.862
						c0.695,1.82,1.659,3.413,2.891,4.778c1.231,1.365,2.716,2.437,4.457,3.212c1.739,0.776,3.654,1.164,5.742,1.164
						c2.569,0,4.898-0.548,6.986-1.646c2.087-1.097,3.854-2.53,5.3-4.297c0.267-0.267,0.562-0.401,0.883-0.401
						c0.213,0,0.401,0.08,0.562,0.241l4.256,4.176c0.213,0.214,0.321,0.455,0.321,0.723
						C219.266,976.31,219.159,976.577,218.945,976.898z"/>
					<path class="st0" d="M260.059,940.281c0-0.643,0.321-0.964,0.964-0.964h29.792c0.643,0,0.964,0.321,0.964,0.964v6.344
						c0,0.643-0.321,0.964-0.964,0.964h-21.681v11.161h17.185c0.642,0,0.963,0.321,0.963,0.964v6.104
						c0,0.642-0.321,0.963-0.963,0.963h-17.185v9.877h21.681c0.643,0,0.964,0.321,0.964,0.964v6.344
						c0,0.643-0.321,0.964-0.964,0.964h-29.792c-0.643,0-0.964-0.321-0.964-0.964V940.281z"/>
					<path class="st0" d="M334.015,981.315c-0.054-0.053-0.148-0.147-0.281-0.281c-0.134-0.133-0.201-0.308-0.201-0.522
						c0-0.267,0.026-0.454,0.081-0.562l2.65-5.14c0.161-0.213,0.428-0.321,0.803-0.321c0.268,0,0.455,0.028,0.562,0.08
						c0.855,0.482,2.261,1.059,4.216,1.727c1.954,0.671,4.457,1.004,7.508,1.004c0.964,0,1.887-0.12,2.771-0.361
						c0.883-0.24,1.659-0.577,2.329-1.006c0.668-0.43,1.217-0.938,1.646-1.528c0.428-0.59,0.643-1.207,0.643-1.853
						c0-1.232-0.59-2.239-1.767-3.018c-1.178-0.777-2.65-1.487-4.417-2.131c-1.767-0.645-3.667-1.314-5.701-2.012
						c-2.035-0.697-3.935-1.609-5.702-2.736s-3.239-2.549-4.417-4.265c-1.178-1.717-1.767-3.916-1.767-6.599
						c0-4.131,1.392-7.351,4.176-9.656c2.783-2.307,6.771-3.461,11.965-3.461c1.337,0,2.69,0.122,4.055,0.365
						s2.636,0.528,3.814,0.853c1.177,0.323,2.249,0.675,3.212,1.054c0.964,0.379,1.739,0.675,2.329,0.891
						c0.321,0.216,0.534,0.514,0.642,0.893c0,0.271-0.027,0.459-0.08,0.566l-2.409,5.497c-0.108,0.375-0.401,0.562-0.883,0.562
						c-0.161,0-0.349-0.053-0.562-0.161c-0.536-0.16-1.205-0.361-2.008-0.602c-0.803-0.241-1.674-0.469-2.61-0.683
						c-0.937-0.214-1.86-0.402-2.77-0.562c-0.911-0.161-1.74-0.241-2.49-0.241c-1.767,0-3.146,0.229-4.135,0.683
						c-0.991,0.456-1.727,0.964-2.208,1.526c-0.481,0.562-0.763,1.138-0.843,1.726c-0.081,0.59-0.121,0.991-0.121,1.205
						c0,1.393,0.588,2.517,1.767,3.373c1.177,0.856,2.636,1.633,4.376,2.328c1.739,0.696,3.64,1.393,5.701,2.088
						c2.061,0.696,3.961,1.594,5.702,2.69c1.739,1.098,3.198,2.477,4.376,4.136c1.177,1.659,1.767,3.773,1.767,6.344
						c0,1.874-0.496,3.561-1.486,5.059c-0.991,1.499-2.236,2.771-3.734,3.814c-1.5,1.044-3.146,1.847-4.938,2.409
						c-1.794,0.562-3.493,0.843-5.099,0.843c-2.838,0-5.581-0.215-8.231-0.643S336.852,983.136,334.015,981.315z"/>
					<path class="st0" d="M406.928,981.315c-0.054-0.053-0.148-0.147-0.281-0.281c-0.134-0.133-0.201-0.308-0.201-0.522
						c0-0.267,0.026-0.454,0.081-0.562l2.65-5.14c0.161-0.213,0.428-0.321,0.803-0.321c0.268,0,0.455,0.028,0.562,0.08
						c0.855,0.482,2.261,1.059,4.216,1.727c1.954,0.671,4.457,1.004,7.508,1.004c0.964,0,1.887-0.12,2.771-0.361
						c0.883-0.24,1.659-0.577,2.329-1.006c0.668-0.43,1.217-0.938,1.646-1.528c0.428-0.59,0.643-1.207,0.643-1.853
						c0-1.232-0.59-2.239-1.767-3.018c-1.178-0.777-2.65-1.487-4.417-2.131c-1.767-0.645-3.667-1.314-5.701-2.012
						c-2.035-0.697-3.935-1.609-5.702-2.736s-3.239-2.549-4.417-4.265c-1.178-1.717-1.767-3.916-1.767-6.599
						c0-4.131,1.392-7.351,4.176-9.656c2.783-2.307,6.771-3.461,11.965-3.461c1.337,0,2.69,0.122,4.055,0.365
						s2.636,0.528,3.814,0.853c1.177,0.323,2.249,0.675,3.212,1.054c0.964,0.379,1.739,0.675,2.329,0.891
						c0.321,0.216,0.534,0.514,0.642,0.893c0,0.271-0.027,0.459-0.08,0.566l-2.409,5.497c-0.108,0.375-0.401,0.562-0.883,0.562
						c-0.161,0-0.349-0.053-0.562-0.161c-0.536-0.16-1.205-0.361-2.008-0.602c-0.803-0.241-1.674-0.469-2.61-0.683
						c-0.937-0.214-1.86-0.402-2.77-0.562c-0.911-0.161-1.74-0.241-2.49-0.241c-1.767,0-3.146,0.229-4.135,0.683
						c-0.991,0.456-1.727,0.964-2.208,1.526c-0.481,0.562-0.763,1.138-0.843,1.726c-0.081,0.59-0.121,0.991-0.121,1.205
						c0,1.393,0.588,2.517,1.767,3.373c1.177,0.856,2.636,1.633,4.376,2.328c1.739,0.696,3.64,1.393,5.701,2.088
						c2.061,0.696,3.961,1.594,5.702,2.69c1.739,1.098,3.198,2.477,4.376,4.136c1.177,1.659,1.767,3.773,1.767,6.344
						c0,1.874-0.496,3.561-1.486,5.059c-0.991,1.499-2.236,2.771-3.734,3.814c-1.5,1.044-3.146,1.847-4.938,2.409
						c-1.794,0.562-3.493,0.843-5.099,0.843c-2.838,0-5.581-0.215-8.231-0.643S409.765,983.136,406.928,981.315z"/>
					<path class="st0" d="M537.095,947.589h-11.001c-0.642,0-0.963-0.321-0.963-0.964v-6.344c0-0.643,0.321-0.964,0.963-0.964
						h31.077c0.643,0,0.964,0.321,0.964,0.964v6.344c0,0.643-0.321,0.964-0.964,0.964h-11.001v36.376
						c0,0.643-0.321,0.964-0.964,0.964h-7.147c-0.642,0-0.963-0.321-0.963-0.964V947.589z"/>
					<path class="st0" d="M618.2,938.755c3.212,0,6.236,0.616,9.074,1.848c2.837,1.231,5.3,2.891,7.388,4.979
						s3.747,4.551,4.979,7.388c1.231,2.838,1.847,5.862,1.847,9.074s-0.616,6.237-1.847,9.074c-1.232,2.838-2.891,5.3-4.979,7.388
						s-4.551,3.747-7.388,4.979c-2.838,1.232-5.862,1.847-9.074,1.847c-3.212,0-6.237-0.614-9.074-1.847
						c-2.838-1.231-5.3-2.891-7.388-4.979c-2.087-2.088-3.748-4.55-4.979-7.388c-1.232-2.837-1.847-5.862-1.847-9.074
						s0.615-6.236,1.847-9.074c1.231-2.837,2.891-5.3,4.979-7.388c2.088-2.088,4.55-3.747,7.388-4.979
						C611.963,939.371,614.988,938.755,618.2,938.755z M618.12,977.3c2.088,0,4.001-0.388,5.742-1.164
						c1.739-0.775,3.252-1.847,4.537-3.212c1.285-1.365,2.275-2.958,2.971-4.778c0.695-1.819,1.044-3.774,1.044-5.862
						c0-2.087-0.349-4.041-1.044-5.861c-0.696-1.819-1.686-3.413-2.971-4.778c-1.285-1.365-2.798-2.449-4.537-3.252
						c-1.741-0.803-3.654-1.205-5.742-1.205s-4.002,0.402-5.742,1.205c-1.74,0.803-3.226,1.887-4.457,3.252
						c-1.232,1.365-2.196,2.959-2.891,4.778c-0.696,1.82-1.044,3.774-1.044,5.861c0,2.088,0.348,4.043,1.044,5.862
						c0.695,1.82,1.659,3.413,2.891,4.778c1.231,1.365,2.716,2.437,4.457,3.212C614.118,976.912,616.032,977.3,618.12,977.3z"/>
					<path class="st0" d="M731.264,981.315c-0.054-0.053-0.148-0.147-0.281-0.281c-0.134-0.133-0.201-0.308-0.201-0.522
						c0-0.267,0.026-0.454,0.081-0.562l2.65-5.14c0.161-0.213,0.428-0.321,0.803-0.321c0.268,0,0.455,0.028,0.562,0.08
						c0.855,0.482,2.261,1.059,4.216,1.727c1.954,0.671,4.457,1.004,7.508,1.004c0.964,0,1.887-0.12,2.771-0.361
						c0.883-0.24,1.659-0.577,2.329-1.006c0.668-0.43,1.217-0.938,1.646-1.528c0.428-0.59,0.643-1.207,0.643-1.853
						c0-1.232-0.59-2.239-1.767-3.018c-1.178-0.777-2.65-1.487-4.417-2.131c-1.767-0.645-3.667-1.314-5.701-2.012
						c-2.035-0.697-3.935-1.609-5.702-2.736s-3.239-2.549-4.417-4.265c-1.178-1.717-1.767-3.916-1.767-6.599
						c0-4.131,1.392-7.351,4.176-9.656c2.783-2.307,6.771-3.461,11.965-3.461c1.337,0,2.69,0.122,4.055,0.365
						s2.636,0.528,3.814,0.853c1.177,0.323,2.249,0.675,3.212,1.054c0.964,0.379,1.739,0.675,2.329,0.891
						c0.321,0.216,0.534,0.514,0.642,0.893c0,0.271-0.027,0.459-0.08,0.566l-2.409,5.497c-0.108,0.375-0.401,0.562-0.883,0.562
						c-0.161,0-0.349-0.053-0.562-0.161c-0.536-0.16-1.205-0.361-2.008-0.602c-0.803-0.241-1.674-0.469-2.61-0.683
						c-0.937-0.214-1.86-0.402-2.77-0.562c-0.911-0.161-1.74-0.241-2.49-0.241c-1.767,0-3.146,0.229-4.135,0.683
						c-0.991,0.456-1.727,0.964-2.208,1.526c-0.481,0.562-0.763,1.138-0.843,1.726c-0.081,0.59-0.121,0.991-0.121,1.205
						c0,1.393,0.588,2.517,1.767,3.373c1.177,0.856,2.636,1.633,4.376,2.328c1.739,0.696,3.64,1.393,5.701,2.088
						c2.061,0.696,3.961,1.594,5.702,2.69c1.739,1.098,3.198,2.477,4.376,4.136c1.177,1.659,1.767,3.773,1.767,6.344
						c0,1.874-0.496,3.561-1.486,5.059c-0.991,1.499-2.236,2.771-3.734,3.814c-1.5,1.044-3.146,1.847-4.938,2.409
						c-1.794,0.562-3.493,0.843-5.099,0.843c-2.838,0-5.581-0.215-8.231-0.643S734.1,983.136,731.264,981.315z"/>
					<path class="st0" d="M823.449,985.33c-6.372,0-11.149-1.847-14.334-5.541c-3.186-3.693-4.778-8.698-4.778-15.016v-24.492
						c0-0.643,0.321-0.964,0.964-0.964h7.146c0.643,0,0.964,0.321,0.964,0.964v24.492c0,4.175,0.749,7.307,2.249,9.395
						c1.498,2.088,4.122,3.132,7.869,3.132c3.747,0,6.37-1.044,7.87-3.132c1.498-2.088,2.249-5.22,2.249-9.395v-24.492
						c0-0.643,0.321-0.964,0.963-0.964h7.147c0.643,0,0.964,0.321,0.964,0.964v24.492c0,6.317-1.606,11.322-4.818,15.016
						C834.691,983.483,829.873,985.33,823.449,985.33z"/>
					<path class="st0" d="M925.512,976.898c-2.142,2.569-4.765,4.617-7.87,6.144c-3.105,1.525-6.452,2.288-10.038,2.288
						c-3.212,0-6.237-0.614-9.074-1.847c-2.838-1.231-5.3-2.891-7.388-4.979c-2.087-2.088-3.748-4.55-4.979-7.388
						c-1.232-2.837-1.847-5.862-1.847-9.074s0.615-6.236,1.847-9.074c1.231-2.837,2.891-5.3,4.979-7.388
						c2.088-2.088,4.55-3.747,7.388-4.979c2.837-1.231,5.862-1.848,9.074-1.848c3.212,0,6.236,0.603,9.074,1.808
						c2.837,1.204,5.3,2.851,7.388,4.938c0.213,0.321,0.321,0.59,0.321,0.803c0,0.269-0.108,0.51-0.321,0.723l-4.577,4.417
						c-0.161,0.16-0.349,0.24-0.562,0.24c-0.321,0-0.616-0.133-0.883-0.401c-1.446-1.337-3.039-2.354-4.778-3.052
						c-1.741-0.694-3.654-1.044-5.742-1.044s-4.002,0.402-5.742,1.205c-1.74,0.803-3.226,1.887-4.457,3.252
						c-1.232,1.365-2.196,2.959-2.891,4.778c-0.696,1.82-1.044,3.774-1.044,5.861c0,2.088,0.348,4.043,1.044,5.862
						c0.695,1.82,1.659,3.413,2.891,4.778c1.231,1.365,2.716,2.437,4.457,3.212c1.739,0.776,3.654,1.164,5.742,1.164
						c2.569,0,4.898-0.548,6.986-1.646c2.087-1.097,3.854-2.53,5.3-4.297c0.267-0.267,0.562-0.401,0.883-0.401
						c0.213,0,0.401,0.08,0.562,0.241l4.256,4.176c0.213,0.214,0.321,0.455,0.321,0.723
						C925.833,976.31,925.725,976.577,925.512,976.898z"/>
					<path class="st0" d="M1004.607,976.898c-2.142,2.569-4.765,4.617-7.87,6.144c-3.105,1.525-6.452,2.288-10.038,2.288
						c-3.212,0-6.237-0.614-9.074-1.847c-2.838-1.231-5.3-2.891-7.388-4.979c-2.087-2.088-3.748-4.55-4.979-7.388
						c-1.232-2.837-1.847-5.862-1.847-9.074s0.615-6.236,1.847-9.074c1.231-2.837,2.891-5.3,4.979-7.388
						c2.088-2.088,4.55-3.747,7.388-4.979c2.837-1.231,5.862-1.848,9.074-1.848c3.212,0,6.236,0.603,9.074,1.808
						c2.837,1.204,5.3,2.851,7.388,4.938c0.213,0.321,0.321,0.59,0.321,0.803c0,0.269-0.108,0.51-0.321,0.723l-4.577,4.417
						c-0.161,0.16-0.349,0.24-0.562,0.24c-0.321,0-0.616-0.133-0.883-0.401c-1.446-1.337-3.039-2.354-4.778-3.052
						c-1.741-0.694-3.654-1.044-5.742-1.044s-4.002,0.402-5.742,1.205c-1.74,0.803-3.226,1.887-4.457,3.252
						c-1.232,1.365-2.196,2.959-2.891,4.778c-0.696,1.82-1.044,3.774-1.044,5.861c0,2.088,0.348,4.043,1.044,5.862
						c0.695,1.82,1.659,3.413,2.891,4.778c1.231,1.365,2.716,2.437,4.457,3.212c1.739,0.776,3.654,1.164,5.742,1.164
						c2.569,0,4.898-0.548,6.986-1.646c2.087-1.097,3.854-2.53,5.3-4.297c0.267-0.267,0.562-0.401,0.883-0.401
						c0.213,0,0.401,0.08,0.562,0.241l4.256,4.176c0.213,0.214,0.321,0.455,0.321,0.723
						C1004.929,976.31,1004.821,976.577,1004.607,976.898z"/>
					<path class="st0" d="M1045.721,940.281c0-0.643,0.321-0.964,0.964-0.964h29.792c0.643,0,0.964,0.321,0.964,0.964v6.344
						c0,0.643-0.321,0.964-0.964,0.964h-21.681v11.161h17.185c0.642,0,0.963,0.321,0.963,0.964v6.104
						c0,0.642-0.321,0.963-0.963,0.963h-17.185v9.877h21.681c0.643,0,0.964,0.321,0.964,0.964v6.344
						c0,0.643-0.321,0.964-0.964,0.964h-29.792c-0.643,0-0.964-0.321-0.964-0.964V940.281z"/>
					<path class="st0" d="M1119.678,981.315c-0.054-0.053-0.148-0.147-0.281-0.281c-0.134-0.133-0.201-0.308-0.201-0.522
						c0-0.267,0.026-0.454,0.081-0.562l2.65-5.14c0.161-0.213,0.428-0.321,0.803-0.321c0.268,0,0.455,0.028,0.562,0.08
						c0.855,0.482,2.261,1.059,4.216,1.727c1.954,0.671,4.457,1.004,7.508,1.004c0.964,0,1.887-0.12,2.771-0.361
						c0.883-0.24,1.659-0.577,2.329-1.006c0.668-0.43,1.217-0.938,1.646-1.528c0.428-0.59,0.643-1.207,0.643-1.853
						c0-1.232-0.59-2.239-1.767-3.018c-1.178-0.777-2.65-1.487-4.417-2.131c-1.767-0.645-3.667-1.314-5.701-2.012
						c-2.035-0.697-3.935-1.609-5.702-2.736s-3.239-2.549-4.417-4.265c-1.178-1.717-1.767-3.916-1.767-6.599
						c0-4.131,1.392-7.351,4.176-9.656c2.783-2.307,6.771-3.461,11.965-3.461c1.337,0,2.69,0.122,4.055,0.365
						s2.636,0.528,3.814,0.853c1.177,0.323,2.249,0.675,3.212,1.054c0.964,0.379,1.739,0.675,2.329,0.891
						c0.321,0.216,0.534,0.514,0.642,0.893c0,0.271-0.027,0.459-0.08,0.566l-2.409,5.497c-0.108,0.375-0.401,0.562-0.883,0.562
						c-0.161,0-0.349-0.053-0.562-0.161c-0.536-0.16-1.205-0.361-2.008-0.602c-0.803-0.241-1.674-0.469-2.61-0.683
						c-0.937-0.214-1.86-0.402-2.77-0.562c-0.911-0.161-1.74-0.241-2.49-0.241c-1.767,0-3.146,0.229-4.135,0.683
						c-0.991,0.456-1.727,0.964-2.208,1.526c-0.481,0.562-0.763,1.138-0.843,1.726c-0.081,0.59-0.121,0.991-0.121,1.205
						c0,1.393,0.588,2.517,1.767,3.373c1.177,0.856,2.636,1.633,4.376,2.328c1.739,0.696,3.64,1.393,5.701,2.088
						c2.061,0.696,3.961,1.594,5.702,2.69c1.739,1.098,3.198,2.477,4.376,4.136c1.177,1.659,1.767,3.773,1.767,6.344
						c0,1.874-0.496,3.561-1.486,5.059c-0.991,1.499-2.236,2.771-3.734,3.814c-1.5,1.044-3.146,1.847-4.938,2.409
						c-1.794,0.562-3.493,0.843-5.099,0.843c-2.838,0-5.581-0.215-8.231-0.643S1122.515,983.136,1119.678,981.315z"/>
					<path class="st0" d="M1192.591,981.315c-0.054-0.053-0.148-0.147-0.281-0.281c-0.134-0.133-0.201-0.308-0.201-0.522
						c0-0.267,0.026-0.454,0.081-0.562l2.65-5.14c0.161-0.213,0.428-0.321,0.803-0.321c0.268,0,0.455,0.028,0.562,0.08
						c0.855,0.482,2.261,1.059,4.216,1.727c1.954,0.671,4.457,1.004,7.508,1.004c0.964,0,1.888-0.12,2.771-0.361
						c0.884-0.24,1.659-0.577,2.329-1.006c0.669-0.43,1.217-0.938,1.646-1.528s0.643-1.207,0.643-1.853
						c0-1.232-0.59-2.239-1.767-3.018c-1.178-0.777-2.649-1.487-4.416-2.131c-1.767-0.645-3.668-1.314-5.702-2.012
						c-2.035-0.697-3.935-1.609-5.702-2.736s-3.239-2.549-4.417-4.265c-1.178-1.717-1.767-3.916-1.767-6.599
						c0-4.131,1.392-7.351,4.176-9.656c2.783-2.307,6.771-3.461,11.965-3.461c1.337,0,2.689,0.122,4.055,0.365
						s2.637,0.528,3.814,0.853c1.177,0.323,2.248,0.675,3.212,1.054s1.739,0.675,2.329,0.891c0.321,0.216,0.534,0.514,0.643,0.893
						c0,0.271-0.028,0.459-0.081,0.566l-2.409,5.497c-0.107,0.375-0.401,0.562-0.883,0.562c-0.16,0-0.349-0.053-0.562-0.161
						c-0.535-0.16-1.204-0.361-2.007-0.602c-0.804-0.241-1.674-0.469-2.61-0.683c-0.938-0.214-1.86-0.402-2.771-0.562
						c-0.91-0.161-1.74-0.241-2.489-0.241c-1.767,0-3.146,0.229-4.135,0.683c-0.992,0.456-1.727,0.964-2.209,1.526
						c-0.481,0.562-0.763,1.138-0.843,1.726c-0.081,0.59-0.121,0.991-0.121,1.205c0,1.393,0.588,2.517,1.767,3.373
						c1.177,0.856,2.636,1.633,4.376,2.328c1.739,0.696,3.64,1.393,5.701,2.088c2.061,0.696,3.961,1.594,5.701,2.69
						c1.739,1.098,3.198,2.477,4.377,4.136c1.177,1.659,1.767,3.773,1.767,6.344c0,1.874-0.496,3.561-1.485,5.059
						c-0.991,1.499-2.236,2.771-3.734,3.814c-1.499,1.044-3.146,1.847-4.938,2.409c-1.794,0.562-3.493,0.843-5.1,0.843
						c-2.838,0-5.581-0.215-8.23-0.643C1198.172,984.26,1195.428,983.136,1192.591,981.315z"/>
				</g>
			</g>
		</g>
	</g>
</g>
<g id="Layer_2">
</g>
</svg>
