<svg width="11" height="11" viewBox="0 0 11 11" fill="none" xmlns="http://www.w3.org/2000/svg">
<path d="M10.0229 5.89882C10.0229 3.10464 8.00487 0.735534 5.42885 0.505864C4.06189 0.384144 2.6835 0.898584 1.64932 1.91848C0.548095 3.00437 -0.0519653 4.53007 0.0024247 6.10414C0.0188047 6.5795 0.0954247 7.04493 0.223045 7.49306C0.219955 7.52477 0.213775 7.55552 0.213775 7.58819V9.55113C0.213775 10.0797 0.630905 10.5121 1.14073 10.5121H2.62356C2.72708 10.5121 2.81204 10.424 2.81204 10.3167V6.82261C2.81204 6.7153 2.72707 6.62721 2.62356 6.62721H1.14073C1.08728 6.62721 1.03536 6.63458 0.984385 6.64387C0.955345 6.45455 0.935255 6.26332 0.928765 6.06953C0.883655 4.7703 1.37926 3.51111 2.28799 2.61485C3.13029 1.78489 4.24668 1.36495 5.34914 1.46328C7.45025 1.65099 9.09592 3.59919 9.09592 5.8988C9.09592 6.15089 9.07584 6.39978 9.03815 6.64387C8.98686 6.63458 8.93494 6.62721 8.88118 6.62721H7.39834C7.29453 6.62721 7.20986 6.7153 7.20986 6.82261V10.3167C7.20986 10.424 7.29453 10.5121 7.39834 10.5121H8.88118C9.391 10.5121 9.80814 10.0797 9.80814 9.55113V7.58819C9.80814 7.5568 9.80227 7.52733 9.79918 7.49658C9.94564 6.98438 10.0229 6.44816 10.0229 5.89881L10.0229 5.89882Z" fill="white"/>
</svg>
