<svg width="12" height="10" viewBox="0 0 12 10" fill="none" xmlns="http://www.w3.org/2000/svg">
<path fill-rule="evenodd" clip-rule="evenodd" d="M11.569 1.16726C10.004 -0.396741 7.60803 0.0632591 6.00003 1.41626C4.39103 0.0612591 1.99503 -0.397741 0.431034 1.16726C0.338034 1.26126 0.285034 1.38826 0.285034 1.52026V8.77126C0.285034 8.97426 0.407034 9.15626 0.593034 9.23326C0.779034 9.31026 0.995034 9.26826 1.13803 9.12526C2.37803 7.88726 4.40203 8.43526 5.64603 9.67826C5.69303 9.72426 5.74703 9.75926 5.80503 9.78426L5.80803 9.78626H5.80903C5.87003 9.81126 5.93403 9.82426 6.00003 9.82426C6.06503 9.82426 6.13003 9.81126 6.19003 9.78626H6.19103L6.19403 9.78426C6.25203 9.75926 6.30703 9.72426 6.35303 9.67826C7.59803 8.43526 9.62403 7.88726 10.862 9.12526C11.006 9.26826 11.222 9.31026 11.407 9.23326C11.593 9.15626 11.716 8.97426 11.716 8.77126V1.52026C11.716 1.38826 11.663 1.26126 11.569 1.16726ZM1.28503 7.79426V1.73926C2.48203 0.720259 4.30003 1.18826 5.50003 2.28626V8.27426C4.69903 7.74526 3.76803 7.42826 2.86003 7.42826C2.31503 7.42826 1.77903 7.54226 1.28503 7.79426ZM10.716 7.79426C9.40003 7.12326 7.78203 7.42726 6.50003 8.27426V2.28626C7.70203 1.18826 9.52103 0.721259 10.716 1.73926V7.79426Z" fill="white"/>
</svg>
