<svg width="10" height="10" viewBox="0 0 10 10" fill="none" xmlns="http://www.w3.org/2000/svg">
<path fill-rule="evenodd" clip-rule="evenodd" d="M3.05433 9.60727C2.45868 9.35526 1.92358 8.99525 1.46457 8.53543C1.00556 8.07642 0.644739 7.54214 0.392734 6.94649C0.132548 6.33039 0 5.67583 0 5.00082C0 4.32581 0.132548 3.67043 0.392734 3.05433C0.644739 2.45868 1.00556 1.92358 1.46457 1.46457C1.92358 1.00556 2.45868 0.644739 3.05433 0.392734C3.66961 0.13173 4.32499 0 5.00082 0C5.67583 0 6.33039 0.13173 6.94649 0.392734C7.54214 0.644739 8.07642 1.00556 8.53543 1.46457C8.99525 1.92358 9.35526 2.45868 9.60727 3.05433C9.86827 3.67043 10 4.32581 10 5.00082C10 5.67583 9.86827 6.33039 9.60727 6.94649C9.35526 7.54214 8.99525 8.07642 8.53543 8.53543C8.07642 8.99525 7.54214 9.35526 6.94649 9.60727C6.33039 9.86827 5.67583 10 5.00082 10C4.32499 10 3.67043 9.86827 3.05433 9.60727ZM3.55425 1.5783C3.11161 1.76485 2.71478 2.03322 2.3736 2.37441C2.03241 2.71478 1.76486 3.11242 1.57749 3.55506C1.38358 4.01244 1.28539 4.49926 1.28539 5.00082C1.28539 5.50237 1.38358 5.98838 1.57749 6.44657C1.76486 6.8884 2.03241 7.28604 2.3736 7.62641C2.71478 7.96842 3.11161 8.23597 3.55425 8.42334C4.01244 8.61643 4.49845 8.71461 5.00083 8.71461C5.50238 8.71461 5.98839 8.61643 6.44658 8.42334C6.88841 8.23597 7.28605 7.96842 7.62724 7.62641C7.96761 7.28604 8.23598 6.8884 8.42252 6.44657C8.61644 5.98838 8.71462 5.50237 8.71462 5.00082C8.71462 4.49926 8.61644 4.01244 8.42252 3.55506C8.23598 3.11242 7.96761 2.71478 7.62724 2.37441C7.28605 2.03322 6.88841 1.76485 6.44658 1.5783C5.98839 1.38439 5.50238 1.28621 5.00083 1.28621C4.49845 1.28621 4.01244 1.38439 3.55425 1.5783ZM4.92875 5.93716C4.57365 5.93716 4.28564 5.64916 4.28564 5.29406V2.6431C4.28564 2.28801 4.57365 2 4.92875 2C5.28384 2 5.57185 2.28801 5.57185 2.6431V4.65096H6.78605C7.14115 4.65096 7.42916 4.93896 7.42916 5.29406C7.42916 5.64916 7.14115 5.93716 6.78605 5.93716H4.92875Z" fill="white"/>
</svg>
