<?xml version="1.0" encoding="utf-8"?>
<!-- Generator: Adobe Illustrator 23.1.1, SVG Export Plug-In . SVG Version: 6.00 Build 0)  -->
<!DOCTYPE svg PUBLIC "-//W3C//DTD SVG 1.1//EN" "http://www.w3.org/Graphics/SVG/1.1/DTD/svg11.dtd" [
	<!ENTITY ns_extend "http://ns.adobe.com/Extensibility/1.0/">
	<!ENTITY ns_ai "http://ns.adobe.com/AdobeIllustrator/10.0/">
	<!ENTITY ns_graphs "http://ns.adobe.com/Graphs/1.0/">
	<!ENTITY ns_vars "http://ns.adobe.com/Variables/1.0/">
	<!ENTITY ns_imrep "http://ns.adobe.com/ImageReplacement/1.0/">
	<!ENTITY ns_sfw "http://ns.adobe.com/SaveForWeb/1.0/">
	<!ENTITY ns_custom "http://ns.adobe.com/GenericCustomNamespace/1.0/">
	<!ENTITY ns_adobe_xpath "http://ns.adobe.com/XPath/1.0/">
]>
<svg version="1.1" id="US_UK_Download_on_the" xmlns:x="&ns_extend;" xmlns:i="&ns_ai;" xmlns:graph="&ns_graphs;"
	 xmlns="http://www.w3.org/2000/svg" xmlns:xlink="http://www.w3.org/1999/xlink" x="180px" y="55px" width="180px" height="55px" viewBox="0 0 180 55"
	 style="enable-background:new 0 0 180 55;" xml:space="preserve">
<style type="text/css">
	.st0{fill:#A6A6A6;}
	.st1{fill:#FFFFFF;}
</style>
<metadata>
	<sfw  xmlns="&ns_sfw;">
		<slices></slices>
		<sliceSourceBounds  bottomLeftOrigin="true" height="52.7" width="178" x="-9" y="-6.5"></sliceSourceBounds>
	</sfw>
</metadata>
<g>
	<path class="st0" d="M172.7,53.9H7.2c-3.4,0-6.2-2.8-6.2-6.2V7.3c0-3.4,2.8-6.2,6.2-6.2h165.5c3.4,0,6.3,2.8,6.3,6.2v40.3
		C179,51,176.1,53.9,172.7,53.9L172.7,53.9z"/>
	<path d="M177.7,47.5c0,2.8-2.3,5.1-5.1,5.1H7.2c-2.8,0-5.1-2.3-5.1-5.1V7.3c0-2.8,2.3-5.1,5.1-5.1h165.5c2.8,0,5.1,2.3,5.1,5.1
		V47.5L177.7,47.5z"/>
	<g>
		<g>
			<path class="st1" d="M40.7,27.2c0-4.2,3.4-6.3,3.7-6.4c-2-2.9-5.1-3.3-6.2-3.3c-2.6-0.2-5.1,1.6-6.4,1.6c-1.4,0-3.3-1.5-5.6-1.5
				c-2.9,0-5.5,1.7-6.9,4.2c-3,5.2-0.8,12.7,2.1,17c1.4,2.1,3.1,4.4,5.3,4.2c2.2-0.1,3-1.4,5.5-1.4s3.3,1.4,5.5,1.3
				c2.3,0,3.8-2.1,5.2-4.1c1.6-2.3,2.3-4.7,2.3-4.8C45.2,34,40.7,32.3,40.7,27.2z"/>
			<path class="st1" d="M36.5,14.7c1.1-1.5,2-3.4,1.7-5.4c-1.7,0.1-3.8,1.1-4.9,2.5c-1,1.3-2.1,3.3-1.7,5.2
				C33.4,17.2,35.3,16.1,36.5,14.7z"/>
		</g>
	</g>
	<g>
		<path class="st1" d="M71.7,42.6h-3l-1.6-5.2h-5.7l-1.6,5.2h-2.9L62.6,25H66L71.7,42.6z M66.6,35.3l-1.5-4.6
			c-0.1-0.5-0.5-1.6-0.9-3.3l0,0c-0.2,0.7-0.5,1.8-0.8,3.3l-1.5,4.6H66.6z"/>
		<path class="st1" d="M86.2,36.2c0,2.2-0.6,3.9-1.7,5.1c-1,1.1-2.3,1.7-3.9,1.7c-1.7,0-2.9-0.6-3.6-1.8l0,0v6.7h-2.8V34.1
			c0-1.4,0-2.8-0.1-4.1h2.5l0.1,2l0,0c0.9-1.5,2.4-2.3,4.2-2.3c1.5,0,2.8,0.6,3.8,1.7C85.8,32.6,86.2,34.2,86.2,36.2z M83.3,36.3
			c0-1.3-0.2-2.3-0.8-3.1c-0.6-0.8-1.4-1.3-2.4-1.3c-0.7,0-1.4,0.2-1.8,0.7c-0.6,0.5-0.9,1-1.1,1.8C77,34.8,77,35.1,77,35.3v2.1
			c0,0.9,0.2,1.7,0.8,2.3c0.6,0.7,1.3,0.9,2.2,0.9c1,0,1.8-0.5,2.5-1.3C83.1,38.7,83.3,37.5,83.3,36.3z"/>
		<path class="st1" d="M100.8,36.2c0,2.2-0.6,3.9-1.7,5.1c-1,1.1-2.3,1.7-3.9,1.7c-1.7,0-2.9-0.6-3.6-1.8l0,0v6.7h-2.8V34.1
			c0-1.4,0-2.8-0.1-4.1h2.4l0.1,2l0,0c0.9-1.5,2.4-2.3,4.2-2.3c1.5,0,2.8,0.6,3.8,1.7C100.3,32.6,100.8,34.2,100.8,36.2z M97.9,36.3
			c0-1.3-0.2-2.3-0.8-3.1c-0.6-0.8-1.4-1.3-2.4-1.3c-0.7,0-1.4,0.2-1.8,0.7c-0.6,0.5-0.9,1-1.1,1.8c-0.1,0.3-0.1,0.7-0.1,0.8v2.1
			c0,0.9,0.2,1.7,0.8,2.3c0.6,0.7,1.3,0.9,2.2,0.9c1,0,1.8-0.5,2.5-1.3C97.7,38.7,97.9,37.5,97.9,36.3z"/>
		<path class="st1" d="M117.1,37.7c0,1.5-0.6,2.8-1.6,3.7c-1.1,1-2.8,1.5-4.8,1.5c-1.8,0-3.4-0.3-4.6-1.1l0.7-2.3
			c1.3,0.7,2.6,1.1,4,1.1c1,0,1.8-0.2,2.5-0.7c0.6-0.5,0.9-1.1,0.9-2c0-0.7-0.2-1.3-0.7-1.8c-0.5-0.5-1.3-0.9-2.4-1.4
			c-3.1-1.1-4.6-2.9-4.6-5.1c0-1.5,0.6-2.6,1.6-3.6c1-0.9,2.5-1.4,4.2-1.4c1.6,0,2.9,0.2,4,0.8l-0.7,2.3c-1-0.6-2.1-0.8-3.3-0.8
			c-1,0-1.7,0.2-2.3,0.7c-0.5,0.5-0.7,0.9-0.7,1.6c0,0.7,0.2,1.3,0.8,1.7c0.5,0.5,1.3,0.9,2.5,1.4c1.5,0.6,2.6,1.3,3.3,2.2
			C116.8,35.5,117.1,36.5,117.1,37.7z"/>
		<path class="st1" d="M126.4,32h-3.1v6.1c0,1.6,0.6,2.3,1.6,2.3c0.5,0,0.9,0,1.3-0.1l0.1,2.2c-0.6,0.2-1.3,0.3-2.2,0.3
			c-1.1,0-2-0.3-2.6-1c-0.6-0.7-0.9-1.8-0.9-3.4v-6.4h-1.8v-2.1h1.8v-2.3l2.8-0.8v3.1h3.1C126.4,30,126.4,32,126.4,32z"/>
		<path class="st1" d="M140.3,36.2c0,2-0.6,3.6-1.7,4.8c-1.1,1.3-2.8,2-4.6,2s-3.3-0.6-4.5-1.8c-1.1-1.3-1.6-2.8-1.6-4.7
			c0-2,0.6-3.6,1.7-4.8c1.1-1.3,2.6-1.8,4.6-1.8c1.8,0,3.3,0.6,4.5,1.8C139.8,32.7,140.3,34.3,140.3,36.2z M137.4,36.3
			c0-1.1-0.2-2.2-0.8-3c-0.6-1-1.4-1.5-2.5-1.5c-1.1,0-2,0.5-2.5,1.5c-0.5,0.8-0.8,1.8-0.8,3.1c0,1.1,0.2,2.2,0.8,3
			c0.6,1,1.5,1.5,2.5,1.5c1,0,2-0.5,2.5-1.5C137.2,38.5,137.4,37.4,137.4,36.3z"/>
		<path class="st1" d="M149.5,32.4c-0.2,0-0.6-0.1-0.9-0.1c-1,0-1.7,0.3-2.3,1.1c-0.5,0.7-0.7,1.5-0.7,2.5v6.7h-2.8V34
			c0-1.5,0-2.8-0.1-4h2.4l0.1,2.4h0.1c0.3-0.8,0.8-1.5,1.4-2c0.6-0.5,1.3-0.7,2.1-0.7c0.2,0,0.5,0,0.7,0
			C149.5,29.7,149.5,32.4,149.5,32.4z"/>
		<path class="st1" d="M162.1,35.7c0,0.5,0,0.9-0.1,1.3h-8.4c0,1.3,0.5,2.2,1.3,2.9c0.7,0.6,1.6,0.9,2.8,0.9c1.3,0,2.4-0.2,3.4-0.6
			l0.5,2c-1.1,0.6-2.6,0.8-4.2,0.8c-2,0-3.4-0.6-4.6-1.7c-1.1-1.1-1.7-2.8-1.7-4.6c0-2,0.6-3.4,1.6-4.7c1.1-1.4,2.5-2.1,4.5-2.1
			c1.8,0,3.2,0.7,4.1,2.1C161.7,32.8,162.1,34.1,162.1,35.7z M159.4,34.9c0-0.8-0.1-1.6-0.6-2.2c-0.5-0.8-1.3-1.1-2.3-1.1
			c-0.9,0-1.7,0.3-2.2,1.1c-0.5,0.6-0.7,1.4-0.8,2.2H159.4L159.4,34.9z"/>
	</g>
	<g>
		<g>
			<path class="st1" d="M65.7,14.2c0,1.6-0.5,2.8-1.4,3.6c-0.8,0.7-2.1,1-3.7,1c-0.8,0-1.5,0-2.1-0.1v-8.4c0.7-0.1,1.5-0.2,2.4-0.2
				c1.5,0,2.6,0.3,3.4,1C65.2,11.8,65.7,12.9,65.7,14.2z M64.2,14.4c0-1-0.2-1.7-0.8-2.3c-0.6-0.6-1.3-0.8-2.3-0.8
				c-0.5,0-0.8,0-1.1,0.1v6.4c0.1,0,0.5,0,0.9,0c1,0,1.8-0.3,2.4-0.9C63.9,16.3,64.2,15.4,64.2,14.4z"/>
			<path class="st1" d="M73.3,15.6c0,0.9-0.2,1.7-0.8,2.3c-0.6,0.6-1.4,0.9-2.3,0.9s-1.6-0.3-2.2-0.9c-0.6-0.6-0.8-1.4-0.8-2.3
				s0.2-1.7,0.8-2.4c0.6-0.6,1.3-0.9,2.3-0.9c0.9,0,1.6,0.3,2.2,0.9C73.1,13.9,73.3,14.7,73.3,15.6z M72,15.7c0-0.6-0.1-1-0.3-1.5
				c-0.3-0.5-0.7-0.7-1.3-0.7c-0.6,0-1,0.2-1.3,0.7c-0.2,0.5-0.3,0.9-0.3,1.5c0,0.6,0.1,1,0.3,1.5c0.3,0.5,0.7,0.7,1.3,0.7
				c0.6,0,0.9-0.2,1.3-0.8C71.9,16.8,72,16.3,72,15.7z"/>
			<path class="st1" d="M83.8,12.6l-2,6.2h-1.3l-0.8-2.8c-0.2-0.7-0.3-1.4-0.5-2l0,0c-0.1,0.7-0.2,1.4-0.5,2l-0.8,2.8h-1.3L75,12.6
				h1.3l0.7,3c0.1,0.7,0.3,1.4,0.5,2l0,0c0.1-0.6,0.2-1.1,0.5-2l0.9-3h1.1l0.8,2.9c0.2,0.7,0.3,1.4,0.5,2.1l0,0
				c0.1-0.7,0.2-1.4,0.5-2.1l0.8-2.9L83.8,12.6L83.8,12.6z"/>
			<path class="st1" d="M90.9,18.8h-1.4v-3.6c0-1.1-0.5-1.6-1.3-1.6c-0.5,0-0.7,0.1-1,0.5c-0.2,0.3-0.3,0.7-0.3,1v3.7h-1.4v-4.5
				c0-0.6,0-1.1,0-1.7h1.3l0.1,0.9l0,0c0.1-0.3,0.3-0.6,0.7-0.8c0.3-0.2,0.8-0.3,1.3-0.3c0.6,0,1,0.2,1.5,0.6
				c0.5,0.5,0.7,1.1,0.7,2.1v3.8H90.9z"/>
			<path class="st1" d="M94.7,18.8h-1.4V9.8h1.4V18.8z"/>
			<path class="st1" d="M102.9,15.6c0,0.9-0.2,1.7-0.8,2.3c-0.6,0.6-1.4,0.9-2.3,0.9c-0.9,0-1.6-0.3-2.2-0.9
				c-0.6-0.6-0.8-1.4-0.8-2.3s0.2-1.7,0.8-2.4s1.3-0.9,2.3-0.9c0.9,0,1.6,0.3,2.2,0.9C102.6,13.9,102.9,14.7,102.9,15.6z
				 M101.5,15.7c0-0.6-0.1-1-0.3-1.5c-0.3-0.5-0.7-0.7-1.3-0.7c-0.6,0-1,0.2-1.3,0.7c-0.2,0.5-0.3,0.9-0.3,1.5c0,0.6,0.1,1,0.3,1.5
				c0.3,0.5,0.7,0.7,1.3,0.7c0.6,0,0.9-0.2,1.3-0.8C101.3,16.8,101.5,16.3,101.5,15.7z"/>
			<path class="st1" d="M109.5,18.8h-1.3l-0.1-0.7l0,0c-0.5,0.6-1,0.8-1.8,0.8c-0.6,0-1-0.2-1.4-0.6c-0.3-0.3-0.5-0.8-0.5-1.3
				c0-0.8,0.3-1.4,0.9-1.7c0.7-0.3,1.5-0.6,2.6-0.6v-0.1c0-0.8-0.5-1.3-1.3-1.3c-0.6,0-1.1,0.1-1.6,0.5l-0.2-0.9
				c0.6-0.3,1.3-0.6,2.2-0.6c1.6,0,2.4,0.8,2.4,2.5v2.3C109.4,17.9,109.5,18.4,109.5,18.8z M108.1,16.6v-0.9c-1.5,0-2.3,0.3-2.3,1.3
				c0,0.3,0.1,0.6,0.2,0.7c0.2,0.1,0.5,0.2,0.7,0.2c0.3,0,0.6-0.1,0.8-0.3c0.2-0.2,0.5-0.5,0.5-0.7
				C108.1,16.9,108.1,16.8,108.1,16.6z"/>
			<path class="st1" d="M117.4,18.8h-1.3l-0.1-1l0,0c-0.3,0.8-1,1.1-2,1.1c-0.8,0-1.4-0.3-1.8-0.9c-0.5-0.6-0.7-1.4-0.7-2.3
				c0-1,0.2-1.8,0.8-2.4c0.6-0.6,1.1-0.9,2-0.9c0.8,0,1.4,0.2,1.7,0.8l0,0V9.8h1.4v7.3C117.3,17.7,117.3,18.3,117.4,18.8z M116,16.2
				v-1c0-0.2,0-0.3,0-0.5c-0.1-0.3-0.2-0.6-0.5-0.8c-0.2-0.2-0.6-0.3-0.9-0.3c-0.5,0-0.9,0.2-1.3,0.6c-0.3,0.5-0.5,0.9-0.5,1.6
				c0,0.6,0.1,1.1,0.5,1.5c0.3,0.5,0.7,0.6,1.3,0.6c0.5,0,0.8-0.1,1.1-0.5C115.8,17,116,16.6,116,16.2z"/>
			<path class="st1" d="M129.3,15.6c0,0.9-0.2,1.7-0.8,2.3c-0.6,0.6-1.4,0.9-2.3,0.9c-0.9,0-1.6-0.3-2.2-0.9
				c-0.6-0.6-0.8-1.4-0.8-2.3s0.2-1.7,0.8-2.4c0.6-0.6,1.3-0.9,2.3-0.9c0.9,0,1.6,0.3,2.2,0.9C128.9,13.9,129.3,14.7,129.3,15.6z
				 M127.8,15.7c0-0.6-0.1-1-0.3-1.5c-0.3-0.5-0.7-0.7-1.3-0.7s-0.9,0.2-1.3,0.7c-0.2,0.5-0.3,0.9-0.3,1.5c0,0.6,0.1,1,0.3,1.5
				c0.3,0.5,0.7,0.7,1.3,0.7s0.9-0.2,1.3-0.8C127.7,16.8,127.8,16.3,127.8,15.7z"/>
			<path class="st1" d="M136.6,18.8h-1.4v-3.6c0-1.1-0.5-1.6-1.3-1.6c-0.5,0-0.7,0.1-1,0.5c-0.2,0.3-0.3,0.7-0.3,1v3.7h-1.4v-4.5
				c0-0.6,0-1.1,0-1.7h1.3l0.1,0.9l0,0c0.1-0.3,0.5-0.6,0.7-0.8c0.3-0.2,0.8-0.3,1.3-0.3c0.6,0,1,0.2,1.5,0.6
				c0.5,0.5,0.7,1.1,0.7,2.1v3.8H136.6z"/>
			<path class="st1" d="M145.9,13.7h-1.5v3c0,0.8,0.2,1.1,0.8,1.1c0.2,0,0.5,0,0.6-0.1v1c-0.2,0.1-0.6,0.1-1,0.1
				c-0.6,0-0.9-0.1-1.3-0.5c-0.3-0.3-0.5-0.9-0.5-1.7v-3.1h-0.9v-1h0.9v-1.1l1.4-0.5v1.5h1.5L145.9,13.7L145.9,13.7z"/>
			<path class="st1" d="M153.3,18.8h-1.4v-3.6c0-1.1-0.5-1.7-1.3-1.7c-0.7,0-1,0.3-1.3,0.9c0,0.1-0.1,0.3-0.1,0.5v3.8h-1.4v-9h1.4
				v3.8l0,0c0.5-0.7,1-1,1.8-1c0.6,0,1,0.2,1.4,0.6c0.5,0.5,0.7,1.1,0.7,2.1C153.3,15,153.3,18.8,153.3,18.8z"/>
			<path class="st1" d="M160.9,15.4c0,0.2,0,0.5,0,0.6h-4.2c0,0.6,0.2,1,0.6,1.4c0.3,0.3,0.8,0.5,1.4,0.5c0.6,0,1.1-0.1,1.7-0.3
				l0.2,0.9c-0.6,0.2-1.3,0.3-2.1,0.3c-0.9,0-1.7-0.2-2.3-0.8c-0.6-0.6-0.8-1.4-0.8-2.3s0.2-1.7,0.8-2.3c0.6-0.7,1.3-1,2.2-1
				c0.9,0,1.6,0.3,2.1,1C160.6,14,160.9,14.6,160.9,15.4z M159.5,15c0-0.5-0.1-0.8-0.2-1c-0.2-0.3-0.6-0.6-1.1-0.6
				c-0.5,0-0.8,0.2-1.1,0.6c-0.2,0.3-0.3,0.7-0.5,1C156.6,15,159.5,15,159.5,15z"/>
		</g>
	</g>
</g>
</svg>
