<?xml version="1.0" encoding="utf-8"?>
<!-- Generator: Adobe Illustrator 23.1.1, SVG Export Plug-In . SVG Version: 6.00 Build 0)  -->
<!DOCTYPE svg PUBLIC "-//W3C//DTD SVG 1.1//EN" "http://www.w3.org/Graphics/SVG/1.1/DTD/svg11.dtd" [
	<!ENTITY ns_extend "http://ns.adobe.com/Extensibility/1.0/">
	<!ENTITY ns_ai "http://ns.adobe.com/AdobeIllustrator/10.0/">
	<!ENTITY ns_graphs "http://ns.adobe.com/Graphs/1.0/">
	<!ENTITY ns_vars "http://ns.adobe.com/Variables/1.0/">
	<!ENTITY ns_imrep "http://ns.adobe.com/ImageReplacement/1.0/">
	<!ENTITY ns_sfw "http://ns.adobe.com/SaveForWeb/1.0/">
	<!ENTITY ns_custom "http://ns.adobe.com/GenericCustomNamespace/1.0/">
	<!ENTITY ns_adobe_xpath "http://ns.adobe.com/XPath/1.0/">
]>
<svg version="1.1" id="US_UK_Download_on_the" xmlns:x="&ns_extend;" xmlns:i="&ns_ai;" xmlns:graph="&ns_graphs;"
	 xmlns="http://www.w3.org/2000/svg" xmlns:xlink="http://www.w3.org/1999/xlink" x="180px" y="55px" width="180px" height="55px" viewBox="0 0 180 55"
	 style="enable-background:new 0 0 180 55;" xml:space="preserve">
<style type="text/css">
	.st0{fill-rule:evenodd;clip-rule:evenodd;}
	.st1{fill-rule:evenodd;clip-rule:evenodd;fill:#A6A6A6;}
	.st2{fill:#FFFFFF;}
	.st3{fill-rule:evenodd;clip-rule:evenodd;fill:#FFFFFF;}
	.st4{fill-rule:evenodd;clip-rule:evenodd;fill:url(#SVGID_1_);}
	.st5{fill-rule:evenodd;clip-rule:evenodd;fill:url(#SVGID_2_);}
	.st6{fill-rule:evenodd;clip-rule:evenodd;fill:url(#SVGID_3_);}
	.st7{fill-rule:evenodd;clip-rule:evenodd;fill:url(#SVGID_4_);}
	.st8{opacity:0.2;fill-rule:evenodd;clip-rule:evenodd;enable-background:new    ;}
	.st9{opacity:0.12;fill-rule:evenodd;clip-rule:evenodd;enable-background:new    ;}
	.st10{opacity:0.25;fill-rule:evenodd;clip-rule:evenodd;fill:#FFFFFF;enable-background:new    ;}
</style>
<metadata>
	<sfw  xmlns="&ns_sfw;">
		<slices></slices>
		<sliceSourceBounds  bottomLeftOrigin="true" height="52.6" width="178" x="-9" y="-6.4"></sliceSourceBounds>
	</sfw>
</metadata>
<g>
	<path class="st0" d="M172.6,53.8H7.5c-3.7,0-6.5-3-6.5-6.5V7.9c0-3.7,3-6.5,6.5-6.5h164.9c3.7,0,6.5,3,6.5,6.5v39.4
		C179.1,50.8,176.1,53.8,172.6,53.8z"/>
	<path class="st1" d="M172.6,2.3c3.1,0,5.5,2.5,5.5,5.5v39.4c0,3-2.5,5.5-5.5,5.5H7.5c-3.1,0-5.5-2.5-5.5-5.5V7.9
		c0-3,2.5-5.5,5.5-5.5C7.5,2.3,172.6,2.3,172.6,2.3z M172.6,1.2H7.5C3.9,1.2,1,4.2,1,7.7v39.4c0,3.7,3,6.5,6.5,6.5h164.9
		c3.7,0,6.5-3,6.5-6.5V7.9C179.1,4.2,176.1,1.2,172.6,1.2z"/>
	<path class="st2" d="M94.9,18.7c-1.1,0-2.2-0.5-3-1.3c-0.8-0.8-1.3-1.8-1.1-3c0-1.1,0.5-2.2,1.1-3c0.8-0.8,1.8-1.3,3-1.3
		s2.2,0.5,3,1.3s1.1,1.8,1.1,3s-0.5,2.2-1.1,3C97.1,18.2,96,18.7,94.9,18.7z M59.5,18.7c-1.1,0-2.2-0.5-3-1.3
		c-0.8-0.8-1.3-1.8-1.3-3s0.5-2.2,1.3-3c0.8-0.8,1.8-1.3,3-1.3c0.6,0,1.1,0.1,1.7,0.3s0.9,0.6,1.3,0.9v0.1l-0.9,0.9l-0.1-0.1
		c-0.5-0.6-1.1-0.9-2.1-0.9c-0.8,0-1.5,0.2-2.1,0.8c-0.6,0.6-0.9,1.3-0.9,2.2s0.3,1.6,0.9,2.2s1.3,0.8,2.1,0.8s1.6-0.2,2.1-0.8
		c0.3-0.3,0.6-0.8,0.6-1.4h-2.9v-1.3h4v0.1c0,0.2,0.1,0.5,0.1,0.6c0,1.1-0.3,2.1-1,2.8C61.7,18.2,60.6,18.7,59.5,18.7z M106.5,18.4
		h-1.3l-3.8-6.2v1.1v5.1h-1.3v-8.2h1.4v0.1l3.6,5.7V15v-4.7h1.3L106.5,18.4L106.5,18.4z M85.3,18.4h-1.3v-6.9h-2.2v-1.3h5.6v1.3
		h-2.2V18.4L85.3,18.4z M80.9,18.4h-1.3v-8.2h1.3V18.4z M73.7,18.4h-1.3v-6.9h-2.2v-1.3h5.6v1.3h-2.2V18.4z M69.5,18.4h-4.8v-8.2
		h4.8v1.3h-3.6v2.2h3.2V15h-3.2v2.2h3.6V18.4z M92.8,16.6c0.6,0.6,1.3,0.8,2.1,0.8c0.8,0,1.5-0.2,2.1-0.8c0.6-0.6,0.8-1.3,0.8-2.2
		c0-0.9-0.2-1.6-0.8-2.2c-0.6-0.6-1.3-0.8-2.1-0.8c-0.8,0-1.5,0.2-2.1,0.8c-0.6,0.6-0.8,1.3-0.8,2.2C91.9,15.2,92.2,16,92.8,16.6
		L92.8,16.6z"/>
	<path class="st3" d="M90.5,29.8c-3.1,0-5.6,2.3-5.6,5.6c0,3.2,2.5,5.6,5.6,5.6c3.1,0,5.6-2.4,5.6-5.6S93.6,29.8,90.5,29.8z
		 M90.5,38.8c-1.7,0-3.1-1.4-3.1-3.3c0-2.1,1.5-3.3,3.1-3.3c1.7,0,3.1,1.4,3.1,3.3C93.7,37.4,92.2,38.8,90.5,38.8z M78.3,29.8
		c-3.1,0-5.6,2.3-5.6,5.6c0,3.2,2.5,5.6,5.6,5.6c3.1,0,5.6-2.4,5.6-5.6C83.9,32.2,81.4,29.8,78.3,29.8z M78.3,38.8
		c-1.7,0-3.1-1.4-3.1-3.3c0-2.1,1.5-3.3,3.1-3.3c1.7,0,3.1,1.4,3.1,3.3C81.4,37.4,79.9,38.8,78.3,38.8z M63.7,31.5v2.4h5.6
		c-0.2,1.4-0.6,2.3-1.3,3c-0.8,0.8-2.1,1.7-4.4,1.7c-3.4,0-6.2-2.9-6.2-6.3s2.8-6.3,6.2-6.3c1.8,0,3.2,0.7,4.3,1.7l1.7-1.7
		c-1.4-1.4-3.3-2.4-6-2.4c-4.8,0-8.8,3.9-8.8,8.6c0,4.8,4,8.6,8.8,8.6c2.5,0,4.5-0.8,6.1-2.4c1.6-1.6,2.1-3.8,2.1-5.5
		c0-0.6,0-1-0.1-1.5L63.7,31.5L63.7,31.5z M123.3,33.4c-0.5-1.3-1.8-3.6-4.8-3.6c-2.9,0-5.3,2.3-5.3,5.6c0,3.1,2.4,5.6,5.5,5.6
		c2.5,0,4-1.6,4.7-2.5l-2-1.3c-0.6,0.9-1.5,1.5-2.8,1.5s-2.2-0.6-2.8-1.7l7.5-3.1C123.5,33.9,123.3,33.4,123.3,33.4z M115.7,35.2
		c-0.1-2.2,1.7-3.2,2.9-3.2c1,0,1.8,0.5,2.1,1.1L115.7,35.2z M109.6,40.6h2.4V24.2h-2.4V40.6z M105.6,31.1L105.6,31.1
		c-0.7-0.7-1.7-1.3-3-1.3c-2.8,0-5.4,2.4-5.4,5.6c0,3.1,2.5,5.5,5.4,5.5c1.4,0,2.4-0.6,3-1.3h0.1v0.8c0,2.2-1.1,3.3-3,3.3
		c-1.5,0-2.4-1-2.9-2l-2.2,0.9c0.6,1.5,2.3,3.3,4.9,3.3c2.9,0,5.3-1.7,5.3-5.9V30.1h-2.3V31.1L105.6,31.1z M102.7,38.8
		c-1.7,0-3.1-1.4-3.1-3.3s1.4-3.4,3.1-3.4c1.7,0,3,1.5,3,3.4S104.4,38.8,102.7,38.8z M134.8,24.2h-5.9v16.4h2.4v-6.2h3.4
		c2.8,0,5.4-2,5.4-5.1S137.5,24.2,134.8,24.2z M134.9,32.1h-3.4v-5.6h3.4c1.8,0,2.9,1.5,2.9,2.9C137.7,30.6,136.7,32.1,134.9,32.1z
		 M150,29.8c-1.8,0-3.7,0.8-4.4,2.5l2.2,0.9c0.5-0.9,1.4-1.3,2.2-1.3c1.3,0,2.5,0.8,2.5,2.1v0.2c-0.5-0.2-1.4-0.6-2.5-0.6
		c-2.3,0-4.7,1.3-4.7,3.7c0,2.2,2,3.7,4,3.7c1.6,0,2.5-0.7,3.1-1.6h0.1v1.3h2.4v-6.3C155,31.4,152.8,29.8,150,29.8z M149.7,38.8
		c-0.8,0-2-0.3-2-1.4c0-1.3,1.4-1.7,2.6-1.7c1,0,1.6,0.2,2.2,0.6C152.5,37.6,151.2,38.8,149.7,38.8z M163.6,30.1l-2.9,7.1h-0.1
		l-2.9-7.1h-2.6l4.4,10l-2.5,5.5h2.5l6.8-15.5H163.6z M141.5,40.6h2.4V24.2h-2.4V40.6z"/>
	
		<linearGradient id="SVGID_1_" gradientUnits="userSpaceOnUse" x1="1458.2734" y1="1616.9019" x2="1456.3789" y2="1615.924" gradientTransform="matrix(11.64 0 0 -22.55 -16944.6738 36473.7383)">
		<stop  offset="0" style="stop-color:#00A0FF"/>
		<stop  offset="6.569999e-03" style="stop-color:#00A1FF"/>
		<stop  offset="0.2601" style="stop-color:#00BEFF"/>
		<stop  offset="0.5122" style="stop-color:#00D2FF"/>
		<stop  offset="0.7604" style="stop-color:#00DFFF"/>
		<stop  offset="1" style="stop-color:#00E3FF"/>
	</linearGradient>
	<path class="st4" d="M14.7,11.1c-0.3,0.5-0.6,1-0.6,1.8V42c0,0.8,0.2,1.5,0.6,1.8l0.1,0.1l16.3-16.3v-0.3L14.7,11.1L14.7,11.1z"/>
	
		<linearGradient id="SVGID_2_" gradientUnits="userSpaceOnUse" x1="1421.8695" y1="1612.9341" x2="1418.3928" y2="1612.9341" gradientTransform="matrix(9.145 0 0 -7.7 -12957.54 12447.207)">
		<stop  offset="0" style="stop-color:#FFE000"/>
		<stop  offset="0.4087" style="stop-color:#FFBD00"/>
		<stop  offset="0.7754" style="stop-color:#FFA500"/>
		<stop  offset="1" style="stop-color:#FF9C00"/>
	</linearGradient>
	<path class="st5" d="M36.5,33.1l-5.4-5.4v-0.3l5.4-5.4l0.1,0.1l6.4,3.7c1.8,1,1.8,2.8,0,3.8l-6.4,3.7C36.6,33,36.5,33.1,36.5,33.1z
		"/>
	
		<linearGradient id="SVGID_3_" gradientUnits="userSpaceOnUse" x1="1488.9165" y1="1614.8687" x2="1486.9255" y2="1612.2858" gradientTransform="matrix(15.02 0 0 -11.5775 -22329.9199 18726.6582)">
		<stop  offset="0" style="stop-color:#FF3A44"/>
		<stop  offset="1" style="stop-color:#C31162"/>
	</linearGradient>
	<path class="st6" d="M36.6,33l-5.5-5.5L14.7,43.9c0.6,0.7,1.6,0.7,2.8,0.1L36.6,33"/>
	
		<linearGradient id="SVGID_4_" gradientUnits="userSpaceOnUse" x1="1487.3812" y1="1616.3735" x2="1488.2703" y2="1615.2195" gradientTransform="matrix(15.02 0 0 -11.5715 -22329.9199 18705.3477)">
		<stop  offset="0" style="stop-color:#32A071"/>
		<stop  offset="6.850000e-02" style="stop-color:#2DA771"/>
		<stop  offset="0.4762" style="stop-color:#15CF74"/>
		<stop  offset="0.8009" style="stop-color:#06E775"/>
		<stop  offset="1" style="stop-color:#00F076"/>
	</linearGradient>
	<path class="st7" d="M36.6,22L17.4,11.1c-1.1-0.7-2.2-0.6-2.8,0.1l16.4,16.3L36.6,22z"/>
	<path class="st8" d="M36.5,32.9L17.4,43.7c-1,0.6-2.1,0.6-2.6,0l-0.1,0.2l0.1,0.1c0.6,0.6,1.6,0.6,2.6,0l19.2-10.9L36.5,32.9z"/>
	<path class="st9" d="M43.1,29.2l-6.5,3.7l0.1,0.1l6.4-3.7c0.9-0.6,1.4-1.3,1.4-2C44.3,28.2,43.9,28.8,43.1,29.2z"/>
	<path class="st10" d="M17.4,11.3l25.6,14.6c0.8,0.5,1.3,1,1.4,1.7c0-0.7-0.5-1.4-1.4-2L17.4,11.1c-1.8-1-3.3-0.2-3.3,2v0.2
		C14.1,11.1,15.6,10.1,17.4,11.3z"/>
</g>
</svg>
